<svg xmlns="http://www.w3.org/2000/svg" version="1.0" width="125pt" height="125pt" viewBox="0 0 450 450" preserveAspectRatio="xMidYMid meet">
<metadata fill="#cecece">
Created by potrace 1.10, written by Peter Selinger 2001-2011
</metadata>
<g transform="translate(0.000000,769.000000) scale(0.050000,-0.050000)" fill="#cecece" stroke="none">
<path d="M3933 14996 c-87 -98 -152 -184 -146 -190 51 -50 333 195 333 289 0 101 -22 90 -187 -99z" fill="#cecece"/>
<path d="M4312 15091 c-20 -37 -89 -106 -154 -153 -123 -89 -138 -111 -88 -131 62 -24 330 190 330 263 0 84 -48 95 -88 21z" fill="#cecece"/>
<path d="M3591 15122 c-56 -22 124 -128 202 -118 61 7 90 56 34 56 -20 0 -64 18 -97 40 -65 43 -79 45 -139 22z" fill="#cecece"/>
<path d="M3355 15018 c-49 -28 -30 -50 101 -116 165 -82 236 -95 263 -45 30 57 27 63 -30 63 -27 0 -104 27 -169 60 -136 69 -120 65 -165 38z" fill="#cecece"/>
<path d="M4974 14880 c-51 -55 -107 -100 -125 -100 -34 0 -34 2 3 135 23 83 -55 51 -182 -75 -130 -129 -184 -165 -395 -266 -121 -57 -190 -132 -100 -107 245 67 345 76 403 34 74 -52 136 -53 152 -1 18 57 30 51 118 -61 112 -142 195 -145 169 -6 -22 119 -23 119 93 36 70 -50 118 -69 175 -69 l77 0 -54 71 -55 71 59 -14 c32 -8 90 -25 129 -39 76 -26 215 6 163 38 -40 25 -28 43 61 93 207 115 100 184 -183 119 -108 -25 -117 -17 -64 58 23 33 42 65 42 71 0 30 -149 8 -202 -29 -125 -89 -223 -88 -128 1 71 67 40 140 -58 140 -3 0 -47 -45 -98 -100z m55 -90 l-53 -90 105 0 c81 0 120 11 171 50 89 68 99 63 46 -23 l-45 -73 184 11 c204 11 221 7 101 -26 -81 -21 -82 -22 -45 -63 42 -48 60 -50 -168 15 -146 42 -160 35 -114 -52 l33 -65 -77 47 c-42 25 -95 58 -116 73 -82 55 -116 35 -101 -59 l14 -85 -57 52 c-132 120 -199 143 -254 88 -82 -82 -70 36 14 143 97 122 117 132 92 42 -11 -36 -19 -67 -19 -70 0 -50 165 8 240 85 49 50 91 90 95 90 4 0 -17 -40 -46 -90z" fill="#cecece"/>
<path d="M4407 14869 c-7 -17 -6 -36 0 -43 20 -19 117 32 103 54 -19 31 -90 24 -103 -11z" fill="#cecece"/>
<path d="M2670 14842 c-329 -122 -523 -221 -433 -222 60 0 152 28 297 91 115 50 224 88 242 85 18 -3 -79 -56 -217 -116 -162 -72 -234 -112 -206 -116 24 -4 92 20 150 53 127 71 348 144 487 162 l100 12 -84 45 c-102 53 -202 55 -336 6z" fill="#cecece"/>
<path d="M3305 14815 c10 -30 95 -46 95 -19 0 20 -46 44 -83 44 -11 0 -17 -11 -12 -25z" fill="#cecece"/>
<path d="M4226 14764 c-100 -52 -144 -124 -75 -124 71 0 261 125 240 159 -20 31 -49 25 -165 -35z" fill="#cecece"/>
<path d="M3409 14759 c-7 -12 -10 -24 -6 -27 118 -88 226 -121 265 -81 45 45 40 69 -16 69 -26 0 -79 14 -119 30 -85 36 -106 37 -124 9z" fill="#cecece"/>
<path d="M3770 14695 c-29 -159 -22 -245 20 -245 35 0 41 17 51 131 6 72 18 142 26 155 11 16 -1 24 -35 24 -41 0 -52 -12 -62 -65z" fill="#cecece"/>
<path d="M3989 14605 c19 -141 26 -156 69 -162 41 -6 46 0 35 41 -6 26 -18 99 -25 162 -12 100 -19 114 -57 114 -43 0 -43 -3 -22 -155z" fill="#cecece"/>
<path d="M2840 14690 c-201 -55 -600 -275 -600 -332 0 -39 72 -13 296 110 259 142 360 179 464 169 101 -10 75 -40 -87 -99 -79 -28 -211 -85 -294 -125 -83 -41 -191 -82 -240 -91 l-89 -18 87 -2 c119 -3 289 44 509 140 330 146 312 142 489 90 253 -76 325 -84 325 -35 0 32 -20 47 -85 64 -47 13 -169 50 -272 83 -230 73 -360 85 -503 46z" fill="#cecece"/>
<path d="M5872 14589 c-6 -17 -40 -43 -75 -57 l-63 -27 108 -32 c125 -37 146 -25 127 74 -14 77 -73 103 -97 42z" fill="#cecece"/>
<path d="M6000 14572 c0 -50 31 -73 75 -57 36 13 31 78 -7 93 -54 21 -68 13 -68 -36z" fill="#cecece"/>
<path d="M3060 14460 c-154 -80 -489 -200 -560 -200 -22 0 -40 -10 -40 -23 0 -37 142 -4 363 84 111 44 206 76 211 71 22 -21 -158 -112 -344 -174 -228 -75 -211 -103 24 -37 196 55 269 92 403 207 84 73 122 92 180 93 68 0 71 2 34 30 -58 44 -106 35 -271 -51z" fill="#cecece"/>
<path d="M5673 14466 c-26 -26 -11 -43 105 -118 115 -74 119 -81 135 -186 18 -117 57 -154 84 -79 l17 46 23 -43 c13 -24 23 -78 23 -120 1 -89 9 -103 93 -162 l63 -44 18 95 18 95 34 -64 c19 -35 34 -98 34 -141 0 -141 86 -215 109 -92 l14 73 61 -75 c75 -90 146 -62 100 39 -35 77 -31 84 56 98 88 14 104 41 35 60 -25 7 -76 39 -115 73 l-70 61 115 -6 c63 -3 115 0 115 8 0 35 -115 96 -233 123 -72 16 -135 34 -141 40 -17 18 15 53 50 55 19 0 70 12 114 26 l80 24 -85 56 c-78 53 -93 56 -215 43 -125 -14 -130 -13 -130 30 0 42 -6 44 -105 32 -58 -7 -135 -13 -172 -13 -62 0 -65 -3 -40 -34 15 -19 -19 -2 -75 39 -56 41 -108 68 -115 61z m440 -157 c10 -27 36 -30 160 -18 103 10 147 7 147 -9 0 -12 -25 -22 -56 -22 -74 0 -134 -45 -118 -87 17 -43 132 -113 188 -113 24 0 49 -9 56 -20 7 -11 -10 -20 -40 -20 -94 0 -61 -99 45 -137 91 -33 111 -63 44 -63 -34 0 -39 -9 -28 -45 10 -36 1 -31 -47 25 l-61 70 -20 -50 c-19 -47 -21 -45 -22 26 -1 62 -18 94 -91 170 l-89 94 -1 -105 c0 -58 -9 -105 -20 -105 -31 0 -60 91 -60 185 0 57 -13 97 -44 129 l-44 47 -25 -45 c-24 -43 -26 -44 -26 -5 -1 22 -15 60 -32 85 -31 44 -31 44 70 44 75 0 106 -9 114 -31z" fill="#cecece"/>
<path d="M1905 14427 c-46 -19 -27 -87 29 -108 116 -45 227 2 127 54 -24 12 -54 32 -67 45 -23 23 -47 26 -89 9z" fill="#cecece"/>
<path d="M5625 14363 c17 -45 17 -73 -1 -112 -30 -66 9 -87 95 -51 56 23 99 80 60 80 -10 0 -54 32 -98 71 l-78 71 22 -59z" fill="#cecece"/>
<path d="M2142 14244 c-11 -21 -68 -61 -126 -89 -240 -115 -639 -447 -705 -586 -55 -116 -30 -148 39 -50 71 103 467 481 504 481 71 0 -105 -223 -289 -368 -112 -88 -218 -206 -200 -223 24 -25 450 398 573 571 37 50 100 107 147 130 104 51 149 113 107 148 -24 20 -33 17 -50 -14z" fill="#cecece"/>
<path d="M1545 14147 c-149 -74 -385 -335 -385 -428 0 -39 7 -35 57 33 59 82 274 288 356 342 78 51 84 7 7 -50 -107 -80 -254 -234 -291 -306 -25 -49 20 -16 191 140 124 112 267 225 317 252 l93 48 -140 1 c-89 0 -164 -12 -205 -32z" fill="#cecece"/>
<path d="M3981 14159 c-118 -21 -130 -31 -164 -144 -36 -117 -5 -163 147 -213 289 -97 429 -232 537 -519 84 -225 38 -506 -92 -556 -18 -7 -29 -39 -29 -82 0 -94 38 -62 181 156 l103 157 -33 166 c-89 439 -258 656 -589 755 -127 38 -153 69 -125 145 70 180 1072 23 1481 -232 l108 -67 -107 -23 c-101 -22 -110 -21 -141 20 -36 48 -78 37 -78 -21 0 -132 267 -119 459 23 l89 65 -87 15 c-47 8 -177 59 -289 113 -419 205 -1003 307 -1371 242z" fill="#cecece"/>
<path d="M5680 14150 c-18 -22 -20 -38 -5 -53 33 -33 95 -11 95 33 0 50 -55 62 -90 20z" fill="#cecece"/>
<path d="M2215 14140 c-5 -16 -20 -64 -34 -106 -27 -85 -5 -134 60 -134 56 0 81 60 50 120 -15 27 -36 73 -47 100 -14 36 -22 41 -29 20z" fill="#cecece"/>
<path d="M3620 14002 c-69 -19 -101 -93 -95 -220 l5 -109 184 -45 c254 -62 346 -128 431 -308 67 -144 95 -172 95 -95 -2 134 -182 367 -331 429 -106 43 -113 66 -21 66 115 0 180 -45 97 -66 -19 -5 -6 -10 29 -12 85 -3 98 26 35 76 -68 53 -135 74 -145 45 -4 -13 -40 -23 -81 -23 -55 -1 -66 -5 -43 -20 34 -22 -77 -6 -155 22 -92 34 -47 185 64 214 72 20 93 65 28 62 -26 -1 -69 -8 -97 -16z" fill="#cecece"/>
<path d="M4020 14003 c-79 -25 39 -63 193 -63 166 0 170 -1 241 -70 l72 -70 -68 -1 c-64 0 -66 -2 -29 -30 49 -37 191 -39 191 -3 0 14 -50 75 -111 135 l-111 109 -178 0 c-97 0 -187 -3 -200 -7z" fill="#cecece"/>
<path d="M1948 13895 c-41 -58 -128 -160 -192 -228 -64 -68 -116 -138 -116 -155 0 -49 26 -38 74 33 78 114 266 289 266 247 0 -60 -74 -162 -175 -243 -127 -100 -165 -145 -165 -195 0 -34 13 -26 72 43 39 46 111 111 160 144 111 77 140 134 158 314 17 173 14 174 -82 40z" fill="#cecece"/>
<path d="M4540 13962 c0 -45 158 -156 239 -170 106 -17 111 -12 81 77 -25 76 -93 104 -74 31 17 -66 -86 -53 -150 20 -51 58 -96 78 -96 42z" fill="#cecece"/>
<path d="M4910 13900 c-20 -32 36 -128 90 -153 130 -59 143 -57 136 25 -6 79 -56 123 -56 50 0 -66 -71 -53 -100 18 -29 70 -52 89 -70 60z" fill="#cecece"/>
<path d="M3660 13880 c-24 -16 -22 -19 15 -20 25 0 45 -9 45 -20 0 -11 -19 -20 -41 -20 -23 0 -36 -9 -29 -20 31 -50 133 -22 126 35 -7 59 -62 81 -116 45z" fill="#cecece"/>
<path d="M6970 13780 c-7 -11 -45 -20 -85 -20 l-73 0 68 -70 c78 -81 110 -87 141 -28 38 70 -11 183 -51 118z" fill="#cecece"/>
<path d="M3233 13747 c-7 -8 -13 -39 -13 -69 0 -31 -9 -61 -20 -68 -11 -7 -20 -32 -20 -56 0 -41 4 -40 48 16 57 71 85 57 56 -29 -19 -51 -1 -107 25 -78 20 24 71 140 71 163 0 70 -109 159 -147 121z" fill="#cecece"/>
<path d="M7074 13747 c-24 -23 -16 -82 13 -93 40 -15 78 16 70 58 -8 39 -58 60 -83 35z" fill="#cecece"/>
<path d="M4760 13715 c17 -17 97 -50 180 -75 253 -75 345 -139 305 -210 -12 -20 -62 -4 -221 71 -288 136 -276 71 14 -77 243 -124 289 -127 298 -20 9 102 -30 134 -285 233 -266 103 -334 121 -291 78z" fill="#cecece"/>
<path d="M6660 13721 c0 -11 20 -30 45 -43 131 -69 173 -155 174 -352 1 -198 20 -236 81 -163 l39 47 0 -183 c1 -179 2 -183 51 -192 59 -11 59 -12 89 101 32 118 70 98 77 -41 7 -132 49 -167 83 -70 l21 62 68 -65 c67 -65 69 -66 91 -24 14 26 42 42 77 43 l54 0 -55 49 c-30 26 -55 53 -55 59 0 6 25 12 55 12 170 5 120 76 -105 150 l-120 39 106 6 c172 10 80 141 -121 175 -123 20 -163 48 -70 48 141 2 102 39 -164 159 -104 47 -219 111 -256 143 -63 56 -165 80 -165 40z m413 -255 c54 -23 67 -36 42 -41 -89 -20 2 -116 151 -159 l124 -36 -99 -10 -99 -10 65 -74 c45 -51 92 -80 149 -93 47 -10 64 -20 39 -21 -56 -3 -57 -25 -4 -73 39 -35 40 -38 5 -51 -23 -8 -52 1 -79 26 -42 38 -44 38 -64 3 -18 -31 -22 -23 -22 46 -1 71 -11 90 -72 137 -84 63 -76 67 -115 -60 l-30 -100 -2 164 c-2 175 -21 211 -83 155 -38 -34 -39 -33 -39 66 0 173 11 184 133 131z" fill="#cecece"/>
<path d="M4574 13705 c-48 -5 -73 -16 -68 -31 5 -14 36 -21 74 -17 39 4 72 -4 82 -20 31 -48 19 -77 -32 -77 -60 0 -65 -30 -11 -59 63 -34 141 -26 141 14 -1 48 -74 206 -94 202 -9 -2 -50 -7 -92 -12z" fill="#cecece"/>
<path d="M3061 13630 c-3 -109 -63 -235 -139 -288 -66 -48 -80 -82 -33 -82 117 0 257 260 204 381 l-30 69 -2 -80z" fill="#cecece"/>
<path d="M5681 13671 c-20 -24 -9 -36 63 -72 299 -152 1074 -1159 891 -1159 -75 0 -142 60 -325 290 -380 477 -749 810 -900 810 -29 0 53 -115 95 -134 102 -47 305 -240 605 -576 395 -442 469 -490 748 -490 l89 0 -81 70 c-45 38 -160 193 -256 345 -276 433 -464 646 -753 851 -149 106 -144 104 -176 65z" fill="#cecece"/>
<path d="M2893 13571 c-22 -161 -18 -200 17 -171 17 14 31 53 32 87 0 35 6 52 11 38 6 -14 19 -25 29 -25 33 0 19 57 -29 112 l-47 55 -13 -96z" fill="#cecece"/>
<path d="M4113 13626 c-29 -29 -9 -46 56 -46 49 0 76 -12 91 -40 27 -50 11 -80 -42 -80 -22 0 -35 -9 -28 -20 15 -25 124 -26 139 -2 15 25 -45 162 -75 171 -69 22 -129 29 -141 17z" fill="#cecece"/>
<path d="M5531 13601 c-7 -11 15 -33 48 -50 142 -74 886 -857 935 -985 13 -32 46 -14 46 25 0 153 -971 1105 -1029 1010z" fill="#cecece"/>
<path d="M6700 13566 c0 -34 -13 -72 -30 -86 -56 -47 -35 -80 51 -80 103 0 116 34 49 132 -70 103 -70 103 -70 34z" fill="#cecece"/>
<path d="M3420 13570 c14 -16 43 -30 65 -30 51 0 275 -100 275 -123 0 -25 -19 -22 -180 33 -159 54 -180 58 -180 34 0 -14 349 -145 384 -144 24 0 79 119 66 141 -7 10 -33 19 -58 19 -25 0 -120 23 -212 50 -197 59 -192 58 -160 20z" fill="#cecece"/>
<path d="M2773 13421 c-12 -70 -33 -106 -104 -171 -106 -97 -122 -181 -39 -202 79 -19 104 2 129 109 14 56 37 112 53 124 34 29 35 89 1 169 l-26 60 -14 -89z m-40 -233 c-18 -54 -40 -80 -70 -84 -62 -10 -54 33 21 110 77 79 84 76 49 -26z" fill="#cecece"/>
<path d="M890 13400 c-55 -61 2 -119 80 -84 29 13 69 24 91 24 37 0 55 48 24 66 -61 35 -161 32 -195 -6z" fill="#cecece"/>
<path d="M2190 13409 c-26 -20 -37 -49 -34 -86 4 -31 -17 -117 -45 -192 -98 -261 -2 -313 224 -122 93 78 80 102 -22 42 -144 -84 -203 -70 -131 32 23 33 44 94 46 137 2 43 21 96 41 118 67 75 3 133 -79 71z" fill="#cecece"/>
<path d="M3058 13338 c-71 -56 -131 -110 -135 -120 -16 -44 51 -11 151 74 59 51 112 89 117 83 11 -10 -184 -194 -242 -228 -57 -33 -19 -58 46 -30 67 29 28 -4 -79 -66 -139 -80 2 -53 154 30 83 46 158 77 166 69 8 -9 3 -19 -11 -24 -13 -5 -45 -26 -70 -46 -68 -55 -23 -76 61 -27 183 106 101 224 -86 125 l-80 -42 72 67 c94 88 144 183 113 214 -34 34 -39 32 -177 -79z" fill="#cecece"/>
<path d="M3360 13423 c0 -9 38 -28 85 -42 135 -40 241 -123 222 -173 -8 -18 -42 -11 -134 30 -67 31 -150 62 -183 69 l-60 14 47 -41 c36 -31 40 -40 15 -40 -55 0 -35 -28 70 -96 84 -55 97 -71 76 -96 -21 -26 -32 -22 -81 25 -31 30 -57 48 -57 39 0 -29 105 -152 130 -152 36 0 95 97 82 133 -8 20 0 28 23 26 68 -7 84 2 115 62 41 79 35 86 -151 180 -161 80 -199 92 -199 62z" fill="#cecece"/>
<path d="M3900 13386 c0 -51 156 -317 175 -298 5 5 -29 64 -75 132 -110 162 -92 170 47 19 121 -130 136 -179 73 -234 -39 -33 -56 -105 -24 -105 9 0 46 31 83 69 90 93 74 141 -104 324 -156 162 -175 172 -175 93z" fill="#cecece"/>
<path d="M4624 13418 c5 -15 37 -35 71 -45 57 -16 84 -57 85 -128 0 -15 -25 -25 -60 -25 -86 0 -84 -70 3 -87 163 -33 170 -20 104 192 -27 84 -37 95 -87 95 -31 0 -72 6 -91 13 -24 9 -32 5 -25 -15z" fill="#cecece"/>
<path d="M4840 13432 c0 -5 95 -54 210 -109 187 -89 210 -106 210 -152 0 -79 -46 -81 -193 -13 -147 69 -168 68 -120 -6 35 -53 290 -145 344 -124 40 15 58 107 32 163 -39 85 -483 307 -483 241z" fill="#cecece"/>
<path d="M1192 13351 c-7 -27 -89 -136 -183 -243 -189 -217 -297 -470 -298 -702 -2 -205 39 -165 107 106 83 331 182 535 235 482 9 -9 -165 -517 -207 -604 -5 -11 11 3 36 30 92 104 204 395 247 643 6 40 39 106 72 148 34 43 59 98 59 132 0 71 -51 77 -68 8z" fill="#cecece"/>
<path d="M3320 13365 c1 -8 52 -36 115 -61 63 -25 126 -51 140 -57 14 -6 25 -1 25 12 0 13 -38 40 -85 60 -106 45 -195 67 -195 46z" fill="#cecece"/>
<path d="M4240 13362 c0 -10 27 -27 59 -39 101 -35 109 -163 10 -163 -70 0 -61 -34 13 -50 115 -26 149 129 54 245 -24 29 -136 34 -136 7z" fill="#cecece"/>
<path d="M5403 13335 c4 -16 160 -169 347 -340 324 -296 430 -408 430 -454 0 -59 -83 9 -392 319 -186 187 -350 340 -363 340 -62 0 -22 -97 70 -172 52 -41 222 -200 377 -352 299 -293 291 -286 347 -257 63 34 69 117 15 198 -170 257 -863 855 -831 718z" fill="#cecece"/>
<path d="M6671 13342 c-17 -27 9 -82 39 -82 35 0 76 54 61 79 -16 26 -85 28 -100 3z" fill="#cecece"/>
<path d="M4880 13325 c0 -9 68 -50 150 -90 102 -51 150 -66 150 -48 0 15 -34 41 -75 58 -41 17 -109 45 -150 63 -41 18 -75 25 -75 17z" fill="#cecece"/>
<path d="M1954 13220 l-100 -100 13 -119 c34 -325 183 -485 381 -409 80 31 36 93 -56 79 -180 -27 -254 205 -143 444 45 96 46 104 12 85 -52 -27 -61 -25 -61 12 0 17 27 42 60 54 65 25 80 54 27 54 -18 0 -78 -45 -133 -100z" fill="#cecece"/>
<path d="M2282 13275 c1 -25 8 -67 16 -95 l14 -50 14 51 c14 57 -2 139 -28 139 -10 0 -17 -20 -16 -45z" fill="#cecece"/>
<path d="M3840 13302 c0 -15 17 -55 37 -90 21 -34 54 -106 74 -160 l37 -98 -59 -50 -59 -50 -25 98 c-57 215 -64 224 -53 58 19 -275 62 -319 190 -192 78 78 75 147 -13 316 -76 146 -129 215 -129 168z" fill="#cecece"/>
<path d="M1320 13221 c0 -21 8 -43 17 -49 10 -6 13 -33 8 -60 -12 -66 57 -107 104 -61 45 46 39 74 -35 145 -76 74 -94 79 -94 25z" fill="#cecece"/>
<path d="M2827 13198 c7 -34 2 -81 -10 -105 -23 -43 -22 -43 20 -5 43 39 53 82 31 140 -22 58 -54 35 -41 -30z" fill="#cecece"/>
<path d="M868 13142 c-133 -63 -308 -349 -338 -552 -9 -64 2 -47 58 86 77 184 162 328 210 358 19 12 -2 -48 -53 -149 -47 -93 -85 -182 -85 -198 0 -16 -18 -64 -40 -108 -23 -43 -33 -79 -24 -79 38 0 84 78 139 231 58 165 125 290 218 404 28 36 49 65 45 65 -5 0 -63 -26 -130 -58z" fill="#cecece"/>
<path d="M3831 13155 c23 -75 91 -228 82 -185 -25 118 -63 230 -78 230 -10 0 -11 -20 -4 -45z" fill="#cecece"/>
<path d="M3715 13108 c-8 -8 -15 -60 -15 -116 0 -131 -34 -252 -70 -252 -45 0 -75 77 -61 157 11 69 10 71 -19 33 -63 -80 -33 -259 44 -266 87 -9 139 47 154 169 14 107 -9 299 -33 275z" fill="#cecece"/>
<path d="M4680 13069 c0 -18 27 -43 60 -55 50 -19 60 -34 60 -88 0 -61 -3 -64 -51 -46 -39 15 -53 13 -62 -12 -18 -45 15 -68 104 -73 l79 -5 6 135 6 135 -62 0 c-35 0 -80 9 -101 21 -31 16 -39 14 -39 -12z" fill="#cecece"/>
<path d="M1178 13060 c-1 -16 -1 -53 1 -81 2 -28 -38 -162 -88 -298 -112 -304 -107 -332 9 -56 80 192 161 327 134 225 -6 -22 -17 -71 -25 -110 -8 -38 -40 -136 -72 -218 -82 -207 -54 -202 47 10 104 216 117 370 41 488 -25 40 -45 57 -47 40z" fill="#cecece"/>
<path d="M4960 13063 c0 -11 34 -40 75 -64 94 -57 125 -94 125 -153 0 -60 -33 -58 -127 6 -85 58 -104 53 -85 -20 16 -66 222 -140 253 -91 24 38 24 152 -1 199 -34 63 -240 169 -240 123z" fill="#cecece"/>
<path d="M4300 13041 c0 -10 20 -21 45 -25 58 -8 70 -94 23 -166 -24 -36 -28 -58 -13 -73 15 -15 37 2 73 56 56 82 67 164 28 203 -28 28 -156 33 -156 5z" fill="#cecece"/>
<path d="M3331 12977 l11 -67 -32 55 c-39 68 -50 69 -50 4 0 -28 21 -72 46 -97 l47 -46 -48 -56 c-65 -76 -53 -138 29 -146 89 -9 182 144 147 243 -17 48 -51 10 -70 -81 -13 -63 -62 -122 -83 -101 -6 6 4 40 22 75 18 35 28 69 21 75 -6 7 4 29 23 50 31 34 32 43 5 90 -45 80 -81 81 -68 2z" fill="#cecece"/>
<path d="M5348 13017 c-9 -14 17 -51 64 -92 448 -395 506 -463 427 -506 -52 -27 -68 -17 -328 220 -209 190 -231 204 -231 144 0 -59 468 -443 540 -443 66 0 120 46 120 100 0 114 -548 648 -592 577z" fill="#cecece"/>
<path d="M2529 12978 c-6 -10 2 -24 20 -30 46 -18 17 -48 -47 -48 -139 0 -199 -217 -90 -326 108 -109 272 -92 196 20 -78 116 -25 198 142 219 55 8 134 36 175 63 64 42 86 47 140 31 l65 -19 -95 -68 c-108 -77 -109 -94 -6 -60 167 55 229 172 112 210 -67 21 -600 29 -612 8z m251 -85 c0 -17 -31 -33 -75 -40 -141 -23 -210 -83 -201 -174 8 -93 -26 -106 -76 -28 -57 86 -9 209 82 209 38 0 80 13 94 29 34 39 176 41 176 4z" fill="#cecece"/>
<path d="M4228 12920 c29 -104 37 -356 15 -421 -29 -83 -11 -103 39 -42 57 71 24 427 -46 493 -15 14 -17 5 -8 -30z" fill="#cecece"/>
<path d="M4960 12953 c0 -4 36 -32 80 -61 53 -35 80 -44 80 -26 0 15 -32 42 -71 60 -72 35 -89 40 -89 27z" fill="#cecece"/>
<path d="M5301 12875 c0 -14 55 -61 121 -105 67 -44 166 -128 220 -187 54 -58 109 -103 122 -98 34 11 -164 219 -311 328 -123 91 -153 103 -152 62z" fill="#cecece"/>
<path d="M4136 12869 c-6 -5 -6 -95 0 -200 8 -163 4 -195 -26 -229 -81 -89 -110 -43 -110 173 0 94 -7 145 -20 137 -35 -21 -25 -401 11 -430 39 -33 114 -2 157 64 89 136 78 575 -12 485z" fill="#cecece"/>
<path d="M2128 12823 c32 -31 167 -36 196 -7 14 14 -20 23 -101 27 -102 6 -117 3 -95 -20z" fill="#cecece"/>
<path d="M4063 12635 c-2 -105 5 -175 17 -175 23 0 23 80 1 240 -15 106 -15 103 -18 -65z" fill="#cecece"/>
<path d="M2823 12734 c81 -68 119 -162 121 -300 1 -120 2 -122 28 -64 66 149 -40 412 -165 409 -31 0 -29 -7 16 -45z" fill="#cecece"/>
<path d="M4620 12762 c0 -10 24 -36 52 -57 47 -34 50 -42 26 -81 l-26 -42 -66 41 c-92 56 -88 5 5 -69 l70 -57 40 47 c104 121 107 151 20 195 -87 45 -121 51 -121 23z" fill="#cecece"/>
<path d="M2620 12693 c0 -37 14 -51 59 -60 107 -21 155 -189 90 -314 -16 -33 -112 -151 -212 -263 -323 -360 -363 -468 -225 -611 65 -68 70 -70 58 -25 -7 28 -18 91 -24 142 l-10 91 193 219 c351 397 384 472 295 673 -65 147 -224 252 -224 148z" fill="#cecece"/>
<path d="M7440 12724 c0 -9 21 -70 46 -135 38 -99 42 -132 25 -198 -15 -60 -14 -80 6 -87 16 -5 -3 -28 -46 -57 -89 -61 -110 -202 -26 -179 133 37 136 37 124 8 -6 -16 -50 -61 -97 -101 -48 -40 -91 -96 -97 -124 -11 -60 -14 -59 79 -21 92 39 105 25 48 -51 -74 -101 -31 -226 48 -139 45 49 85 51 94 5 16 -81 116 64 117 169 l0 96 49 -59 48 -59 23 59 c20 52 16 73 -34 167 -31 60 -60 116 -63 124 -4 9 23 7 60 -3 93 -27 96 -26 96 39 0 47 -12 62 -64 80 -76 27 -136 78 -136 116 0 30 -118 139 -142 132 -7 -3 -29 38 -48 90 -46 121 -110 196 -110 128z m240 -366 c0 -20 34 -60 75 -89 l75 -52 -65 13 c-85 17 -86 -22 -5 -182 74 -146 74 -149 1 -79 l-59 57 -6 -138 c-5 -118 -11 -137 -41 -132 -19 3 -53 -4 -75 -16 -36 -20 -36 -14 10 72 73 137 69 179 -13 136 l-63 -32 74 91 c91 110 78 181 -28 160 -76 -15 -75 0 3 69 66 60 68 144 3 144 -25 0 -26 6 -7 29 32 38 121 0 121 -51z" fill="#cecece"/>
<path d="M3865 12705 c-16 -5 -25 -51 -25 -134 0 -157 -31 -249 -92 -272 -82 -31 -114 -4 -100 84 34 217 36 246 20 231 -10 -9 -28 -54 -41 -100 l-23 -84 -2 75 c-2 76 -42 109 -42 34 0 -103 -102 -265 -154 -245 -37 14 -21 114 37 239 59 125 33 156 -29 34 -115 -226 -114 -347 5 -347 74 0 118 37 152 130 l29 80 -12 -102 c-13 -109 32 -150 129 -119 30 10 33 -4 27 -124 -17 -305 153 -547 292 -416 37 35 11 551 -27 551 -44 0 -54 -75 -39 -304 l15 -219 -48 6 c-115 17 -188 449 -97 573 68 91 88 451 25 429z" fill="#cecece"/>
<path d="M4891 12702 c-6 -10 21 -37 59 -59 75 -44 82 -63 49 -124 -25 -48 -58 -49 -136 -4 -72 41 -104 21 -55 -33 105 -115 272 -59 272 91 0 71 -158 179 -189 129z" fill="#cecece"/>
<path d="M7610 12620 c60 -118 101 -126 142 -29 37 89 25 109 -60 95 -39 -6 -73 -1 -81 12 -43 69 -44 6 -1 -78z" fill="#cecece"/>
<path d="M5229 12678 c-13 -20 64 -98 279 -282 67 -57 61 -108 -16 -127 -40 -10 -76 9 -188 99 -149 120 -173 130 -192 79 -15 -38 -20 -33 68 -77 39 -19 116 -70 172 -112 134 -103 268 -90 268 24 0 140 -338 482 -391 396z" fill="#cecece"/>
<path d="M3754 12632 c-25 -65 -40 -278 -18 -265 11 7 27 72 35 144 13 127 6 181 -17 121z" fill="#cecece"/>
<path d="M7340 12615 c-14 -30 -43 -60 -63 -66 -51 -16 -46 -39 16 -88 106 -83 141 -44 100 109 l-27 100 -26 -55z" fill="#cecece"/>
<path d="M4860 12624 c0 -26 46 -64 77 -64 23 0 22 8 -7 40 -37 41 -70 52 -70 24z" fill="#cecece"/>
<path d="M5167 12570 c-6 -17 -9 -34 -4 -37 306 -230 310 -233 283 -185 -67 120 -259 273 -279 222z" fill="#cecece"/>
<path d="M7772 12568 c-16 -42 2 -68 48 -68 21 0 43 8 49 18 19 31 -11 82 -49 82 -20 0 -41 -14 -48 -32z" fill="#cecece"/>
<path d="M3202 12487 c-88 -133 -62 -227 62 -227 52 0 44 30 -14 56 -62 29 -63 54 -1 171 64 120 33 120 -47 0z" fill="#cecece"/>
<path d="M3295 12482 c-59 -105 -67 -132 -35 -112 28 17 125 210 105 210 -8 0 -40 -44 -70 -98z" fill="#cecece"/>
<path d="M3478 12525 c-11 -30 -25 -82 -31 -115 -12 -77 21 -29 63 89 32 90 2 114 -32 26z" fill="#cecece"/>
<path d="M4474 12567 c-7 -7 10 -30 37 -51 36 -29 46 -51 37 -85 -17 -68 30 -86 74 -29 50 67 -90 223 -148 165z" fill="#cecece"/>
<path d="M2720 12483 c0 -12 -84 -85 -186 -160 -408 -301 -546 -735 -320 -1004 85 -101 114 -108 476 -119 l340 -10 -3 -70 c-4 -66 -2 -68 25 -30 111 151 65 180 -289 180 -350 0 -420 28 -505 203 -122 254 -77 390 234 701 207 206 270 290 240 321 -7 6 -12 1 -12 -12z" fill="#cecece"/>
<path d="M4380 12474 c0 -16 13 -67 30 -114 50 -141 -2 -168 -68 -35 -52 106 -63 24 -12 -97 74 -177 198 -31 134 158 -32 96 -84 150 -84 88z" fill="#cecece"/>
<path d="M4733 12447 c-7 -8 14 -30 47 -50 69 -42 75 -77 23 -124 -48 -44 -81 -42 -137 10 -35 33 -46 37 -46 14 0 -42 112 -144 145 -132 14 6 53 48 85 95 l59 85 -65 57 c-66 59 -87 68 -111 45z" fill="#cecece"/>
<path d="M7228 12391 c-16 -40 7 -71 52 -71 50 0 69 35 39 71 -31 37 -77 37 -91 0z" fill="#cecece"/>
<path d="M5060 12376 c0 -14 41 -66 91 -117 147 -149 53 -229 -114 -96 -61 47 -85 57 -103 39 -50 -50 195 -201 278 -171 121 43 113 150 -21 283 -86 86 -131 107 -131 62z" fill="#cecece"/>
<path d="M6330 12380 c-43 -70 80 -364 214 -511 88 -95 101 -122 117 -233 10 -69 46 -261 80 -426 34 -165 73 -403 87 -530 38 -367 73 -247 93 328 9 254 23 541 30 638 15 200 -79 575 -155 616 -50 27 -47 -8 17 -196 57 -167 100 -1086 51 -1086 -26 0 -34 37 -84 400 -24 171 -47 338 -52 373 -6 40 -49 108 -118 185 -130 146 -148 177 -191 331 -32 117 -62 154 -89 111z" fill="#cecece"/>
<path d="M4672 12364 c-6 -10 6 -34 26 -53 27 -23 42 -27 52 -11 8 12 11 25 7 27 -4 2 -22 16 -40 30 -19 14 -38 17 -45 7z" fill="#cecece"/>
<path d="M5980 12330 c-34 -41 66 -205 245 -402 108 -119 135 -162 135 -213 0 -79 51 -259 150 -525 40 -110 90 -276 109 -370 l35 -169 14 179 c21 275 -49 851 -111 913 -68 68 -74 39 -27 -131 61 -223 86 -441 48 -428 -15 5 -34 44 -42 87 -9 44 -38 165 -65 269 -27 105 -55 223 -61 262 -9 59 -38 97 -151 198 -139 123 -219 240 -219 319 0 48 -25 53 -60 11z" fill="#cecece"/>
<path d="M6130 12317 c24 -77 113 -234 156 -272 46 -41 44 -30 -37 185 -46 125 -154 203 -119 87z" fill="#cecece"/>
<path d="M4220 12315 c0 -14 18 -82 40 -152 55 -174 38 -283 -45 -283 -24 0 -75 192 -75 284 0 97 -40 136 -68 64 -50 -131 41 -448 129 -448 145 0 184 149 105 394 -48 148 -86 211 -86 141z" fill="#cecece"/>
<path d="M6500 12320 c0 -54 147 -300 180 -300 41 0 -68 256 -123 289 -34 20 -57 25 -57 11z" fill="#cecece"/>
<path d="M4993 12306 c-18 -18 107 -146 143 -146 17 0 5 29 -36 80 -64 80 -82 92 -107 66z" fill="#cecece"/>
<path d="M4175 12288 c-25 -40 8 -285 40 -297 32 -12 32 -16 -12 239 -7 44 -20 70 -28 58z" fill="#cecece"/>
<path d="M4540 12262 c0 -14 45 -98 100 -188 155 -251 133 -304 -29 -70 -54 79 -102 133 -106 120 -8 -24 17 -65 180 -289 189 -258 199 -89 14 216 -131 215 -159 252 -159 211z" fill="#cecece"/>
<path d="M5813 12266 c-14 -24 128 -225 186 -264 44 -29 41 -18 -31 118 -71 136 -127 189 -155 146z" fill="#cecece"/>
<path d="M3153 12223 c-65 -71 -64 -181 3 -376 34 -97 66 -201 73 -230 19 -93 121 -95 144 -3 7 28 -7 119 -31 206 -32 118 -39 185 -30 269 11 91 8 111 -17 111 -60 0 -73 -203 -24 -372 57 -196 26 -216 -58 -38 -83 177 -95 270 -44 368 42 81 32 119 -16 65z" fill="#cecece"/>
<path d="M5669 12235 c-32 -84 54 -199 303 -407 85 -72 101 -98 125 -200 14 -65 80 -244 145 -397 66 -153 125 -318 132 -365 21 -158 46 -111 46 88 0 202 -33 376 -132 700 -47 156 -88 228 -88 156 0 -18 32 -142 70 -276 76 -265 78 -274 52 -274 -20 0 -86 174 -140 373 -36 136 -46 150 -227 330 -104 103 -208 214 -231 247 -35 52 -43 55 -55 25z" fill="#cecece"/>
<path d="M550 12210 c-11 -3 -45 -12 -76 -19 -43 -9 -55 -22 -50 -55 11 -78 63 -88 143 -27 100 76 90 137 -17 101z" fill="#cecece"/>
<path d="M3870 12140 c-15 -90 24 -360 52 -360 24 0 23 50 -4 183 -15 76 -16 132 -2 183 17 59 15 74 -6 74 -15 0 -32 -34 -40 -80z" fill="#cecece"/>
<path d="M742 12120 c-13 -44 -50 -123 -83 -175 -81 -131 -124 -348 -115 -580 16 -379 76 -192 76 236 0 162 38 246 81 178 28 -44 22 -254 -11 -389 -33 -138 -38 -250 -12 -250 63 0 111 372 82 628 -19 172 -18 224 7 319 33 128 12 156 -25 33z" fill="#cecece"/>
<path d="M3503 11981 c6 -183 13 -226 45 -255 36 -35 37 -34 24 44 -7 44 -19 159 -26 255 -17 253 -51 219 -43 -44z" fill="#cecece"/>
<path d="M840 12132 c0 -28 9 -52 19 -52 10 0 31 -25 45 -55 31 -64 72 -77 126 -38 44 33 19 81 -59 115 -23 10 -61 32 -86 50 -44 32 -45 31 -45 -20z" fill="#cecece"/>
<path d="M3369 12068 c-49 -328 202 -697 352 -517 31 37 -36 594 -71 583 -42 -14 -59 -153 -30 -250 47 -161 40 -253 -21 -260 -108 -13 -177 161 -179 451 0 113 -34 109 -51 -7z" fill="#cecece"/>
<path d="M1379 12106 c-98 -67 -101 -101 -20 -191 l60 -65 0 88 c1 53 14 103 33 124 60 66 7 98 -73 44z" fill="#cecece"/>
<path d="M5491 12121 c-12 -19 157 -181 190 -181 25 0 -117 174 -154 188 -14 6 -30 3 -36 -7z" fill="#cecece"/>
<path d="M4840 12101 c0 -11 27 -40 60 -64 45 -33 54 -50 38 -70 -28 -33 -59 -167 -39 -167 19 0 141 152 141 177 0 10 -32 47 -71 81 -69 61 -129 81 -129 43z" fill="#cecece"/>
<path d="M1488 12050 c-23 -35 -29 -71 -19 -120 17 -93 71 -96 71 -4 0 37 13 84 29 105 40 53 38 69 -9 69 -21 0 -54 -22 -72 -50z" fill="#cecece"/>
<path d="M1643 12034 c-58 -63 -61 -205 -4 -220 34 -8 38 -2 27 49 -8 43 1 76 32 119 68 92 23 135 -55 52z" fill="#cecece"/>
<path d="M4760 12059 c0 -53 62 -125 87 -100 16 16 7 36 -33 76 -37 37 -54 45 -54 24z" fill="#cecece"/>
<path d="M5360 12032 c0 -70 138 -200 298 -281 156 -78 284 -249 353 -471 65 -207 98 -192 68 32 -36 276 -126 528 -171 483 -6 -7 -2 -28 8 -48 33 -61 83 -247 67 -247 -8 0 -26 30 -39 66 -58 160 -142 236 -361 326 -58 24 -104 62 -136 112 -54 87 -87 97 -87 28z" fill="#cecece"/>
<path d="M4440 12021 c0 -22 27 -70 60 -108 157 -179 237 -377 174 -430 -21 -17 -55 17 -154 158 -128 178 -147 196 -170 160 -29 -48 179 -347 279 -401 52 -27 58 -26 93 18 79 97 30 244 -168 507 -113 150 -114 151 -114 96z" fill="#cecece"/>
<path d="M578 11960 c-29 -27 -83 -68 -120 -90 -79 -47 -114 -159 -114 -360 0 -152 31 -268 34 -129 2 103 38 316 60 355 8 14 11 -78 6 -205 -10 -257 23 -327 46 -96 26 264 48 365 101 454 63 109 58 139 -13 71z" fill="#cecece"/>
<path d="M1791 12002 c-6 -10 11 -32 38 -50 136 -89 159 -182 108 -431 -32 -155 -9 -215 114 -295 166 -107 208 -147 221 -203 39 -168 147 -339 233 -370 l85 -30 -113 -1 c-178 -3 -212 27 -257 227 -30 134 -68 182 -235 294 -209 142 -224 186 -147 437 51 163 -4 320 -112 320 -29 0 -25 -9 20 -45 82 -66 90 -159 26 -310 -89 -212 -63 -296 132 -422 201 -130 214 -144 247 -271 76 -299 218 -393 480 -321 53 15 86 -52 102 -210 14 -130 -50 -181 -121 -98 -45 53 -101 50 -72 -4 17 -31 14 -52 -16 -95 -48 -69 -84 -174 -84 -247 0 -47 -9 -57 -48 -57 -33 0 -47 11 -45 34 2 28 -21 38 -115 50 -269 35 -532 288 -450 434 132 235 378 180 528 -118 39 -77 79 -140 89 -140 33 0 40 33 20 103 -11 42 -12 93 0 133 17 61 -3 106 -29 64 -29 -46 -298 148 -318 230 -22 88 -92 105 -92 23 0 -55 -9 -71 -46 -80 -73 -18 -203 -143 -244 -233 -28 -62 -46 -80 -74 -73 -42 11 -44 5 -15 -48 11 -22 36 -39 56 -39 67 0 179 -138 137 -169 -39 -29 -11 -51 67 -51 56 0 181 -64 173 -89 -13 -39 -889 -38 -928 0 -30 30 -34 30 -50 1 -22 -38 -81 -41 -139 -7 -34 20 -44 20 -51 0 -5 -14 -26 -25 -47 -25 -136 0 -192 -189 -82 -280 34 -29 63 -68 63 -85 0 -18 23 -57 50 -87 89 -96 74 -307 -30 -410 -109 -108 -109 -177 0 -278 142 -131 105 -455 -67 -586 -95 -73 -104 -186 -20 -253 50 -39 76 -41 601 -41 l549 0 59 58 c91 92 72 167 -64 253 -84 53 -124 125 -114 205 l6 48 57 -45 c56 -45 201 -58 298 -27 26 8 35 0 35 -31 0 -46 20 -49 217 -28 108 11 120 16 98 44 -14 17 9 6 51 -26 91 -69 74 -104 -40 -80 -42 10 -85 17 -96 18 -26 1 -30 -223 -6 -291 27 -77 94 -98 307 -98 113 0 189 -8 189 -20 0 -11 35 -20 79 -20 43 0 84 9 91 20 7 11 45 20 85 20 57 0 68 -5 49 -24 -38 -38 -28 -75 27 -100 45 -21 58 -16 125 51 95 92 195 105 164 22 -26 -68 -26 -69 16 -69 20 0 62 27 94 60 62 64 236 91 225 35 -3 -14 19 -28 50 -31 39 -5 55 2 55 25 0 25 23 31 115 30 114 -1 115 -1 65 -35 -164 -113 -216 -200 -156 -260 18 -18 31 -9 58 35 20 32 84 96 142 142 167 131 223 208 207 285 -7 35 -19 100 -27 144 -11 62 -23 80 -54 80 -27 0 -38 -11 -34 -35 7 -43 -33 -46 -49 -4 -7 17 -24 27 -37 22 -45 -18 -150 141 -150 226 0 7 70 6 155 -4 85 -10 206 -12 268 -5 l113 12 43 -136 c24 -75 57 -161 74 -192 28 -51 28 -60 -1 -92 -44 -49 -40 -62 18 -62 36 0 62 -19 90 -65 44 -71 51 -104 19 -85 -61 38 -140 46 -169 17 -43 -42 -37 -67 15 -67 117 0 290 -123 423 -299 520 -693 1120 -1041 1795 -1041 551 0 928 179 1195 568 297 431 135 999 -320 1126 -143 40 -143 43 -18 164 127 123 131 177 22 279 -42 40 -83 99 -90 130 -8 32 -52 98 -100 148 l-85 91 67 112 c37 61 91 130 120 154 83 66 75 168 -20 256 -86 78 -89 95 -33 174 66 92 195 381 209 468 10 62 -3 42 -56 -86 -38 -91 -95 -207 -127 -258 -75 -121 -129 -142 -61 -23 27 48 74 153 102 234 29 80 61 163 73 184 16 30 14 36 -9 27 -42 -16 -81 -82 -122 -208 -48 -147 -127 -304 -148 -291 -9 5 5 53 30 105 75 154 152 446 141 533 -19 152 -46 118 -111 -140 -78 -313 -127 -431 -171 -415 -44 17 -42 28 58 308 70 197 80 239 47 200 -52 -62 -172 -317 -189 -401 -9 -42 -21 -58 -41 -50 -16 6 -32 11 -35 11 -4 0 29 96 71 213 100 277 88 285 -24 18 -48 -116 -96 -211 -106 -211 -29 0 4 147 69 310 34 85 57 159 51 165 -18 17 -167 -309 -182 -397 -12 -71 -20 -80 -57 -70 -24 6 -175 12 -336 12 l-293 0 68 68 c82 82 92 165 23 190 -114 42 -265 -72 -251 -191 l8 -67 -196 0 c-210 0 -222 7 -148 86 45 48 99 66 240 79 89 8 91 55 4 55 -59 0 -72 7 -72 40 0 56 -29 50 -84 -18 -91 -113 -137 -118 -123 -12 10 71 5 99 -23 130 -35 39 -35 40 2 41 37 0 37 1 -1 30 -22 16 -53 25 -68 19 -38 -14 -83 26 -70 61 6 16 -4 34 -22 41 -18 7 -46 40 -63 73 -36 69 -33 67 145 -67 142 -108 230 -133 337 -98 112 37 59 84 -79 68 l-103 -13 -359 271 c-217 164 -375 270 -399 268 -30 -3 -38 6 -33 36 49 288 -9 664 -126 817 -61 80 -69 9 -11 -104 91 -179 164 -583 105 -583 -8 0 -63 108 -122 240 -59 132 -115 240 -125 240 -17 0 13 -85 100 -286 45 -104 105 -318 93 -330 -22 -22 -48 27 -68 131 -26 129 -130 365 -162 365 -31 0 -27 -12 39 -148 34 -67 66 -168 73 -224 l12 -102 -68 10 c-90 12 -125 47 -178 177 -30 72 -51 103 -64 90 -14 -14 1 -58 43 -132 56 -100 59 -111 25 -111 -23 0 -48 23 -61 55 -39 90 -74 127 -110 113 -27 -10 -22 -24 32 -85 94 -108 22 -109 -79 -1 -99 106 -160 99 -66 -8 55 -62 59 -74 28 -74 -21 0 -49 18 -62 40 -32 50 -73 52 -60 3 13 -49 -156 -54 -213 -5 -36 30 -38 29 -26 -3 12 -33 -2 -35 -162 -30 l-174 5 -20 62 c-46 141 -104 161 -62 21 24 -80 24 -93 0 -93 -15 0 -28 12 -28 27 0 15 -22 37 -50 49 -58 27 -66 64 -15 65 22 0 12 11 -25 27 -119 53 -106 -55 16 -129 l64 -39 -73 0 c-63 0 -76 8 -94 60 -12 34 -35 60 -54 60 -25 0 -29 -12 -19 -60 13 -60 13 -60 -79 -60 l-92 0 41 79 c137 269 -11 421 -412 421 -285 0 -288 1 -353 128 -33 65 -63 42 -44 -35 29 -115 85 -138 397 -161 352 -27 458 -106 370 -277 -82 -159 -191 -198 -210 -75 -7 44 -20 80 -27 80 -30 0 -81 -74 -81 -117 0 -26 -12 -43 -32 -43 -26 0 -30 14 -19 70 14 75 -2 86 -72 48 -30 -16 -37 -34 -28 -70 12 -49 -18 -69 -35 -23 -7 20 -14 20 -36 0 -14 -14 -61 -25 -103 -25 -42 0 -98 -14 -125 -32 -40 -26 -51 -27 -58 -5 -5 15 -19 60 -32 101 -25 84 -93 148 -239 227 -138 76 -157 130 -112 322 39 167 31 256 -31 335 -49 62 -151 120 -167 94z m3199 -1150 c288 -86 458 -218 567 -442 40 -81 95 -154 153 -203 120 -101 121 -157 4 -240 -47 -33 -121 -105 -164 -159 -42 -54 -105 -122 -138 -151 l-61 -53 55 10 c96 19 114 -18 114 -231 0 -393 61 -781 178 -1130 71 -214 71 -213 134 -150 62 62 87 162 88 354 l0 147 -90 91 c-110 112 -111 137 -11 232 155 147 128 564 -41 634 -85 35 -109 89 -68 152 l33 50 673 -8 c814 -9 936 -36 1054 -234 22 -36 74 -102 115 -145 91 -94 93 -120 14 -190 -34 -30 -76 -85 -93 -122 -18 -37 -59 -94 -93 -128 -53 -52 -56 -63 -28 -79 86 -48 165 -135 206 -226 24 -56 72 -126 107 -156 80 -71 78 -120 -5 -184 -37 -28 -94 -95 -128 -149 l-60 -97 114 -10 c574 -52 715 -743 249 -1217 -622 -632 -1593 -527 -2413 259 -496 477 -769 980 -926 1710 -55 257 -158 342 -436 366 l-147 12 -12 -212 c-28 -505 55 -796 251 -874 132 -52 165 -112 102 -182 -53 -59 -1783 -57 -1836 2 -48 53 -33 102 49 154 259 165 288 236 297 713 l6 375 -64 60 c-83 78 -107 75 -93 -10 25 -156 -119 -202 -194 -62 -35 64 -197 171 -261 171 -14 0 -19 -137 -15 -425 3 -234 1 -444 -5 -468 -24 -96 -157 -58 -181 52 -14 65 -113 161 -167 161 -18 0 -53 6 -78 13 -44 12 -45 9 -45 -186 0 -228 30 -309 140 -383 95 -63 110 -96 71 -155 l-32 -49 -531 0 c-662 0 -726 27 -520 225 163 157 188 503 46 622 -93 79 -93 122 1 218 l75 77 -1 194 c-1 224 -31 303 -140 367 -81 48 -97 141 -30 176 25 14 342 21 893 21 960 0 928 5 928 -142 0 -97 30 -114 94 -55 91 84 106 151 106 483 0 438 -60 598 -248 659 -105 34 -143 91 -100 152 l32 45 1193 -7 c1073 -7 1205 -11 1313 -43z m-2250 -809 c0 -60 -10 -81 -45 -97 l-44 -20 44 -24 c76 -40 56 -240 -21 -211 -18 7 -38 29 -44 49 -6 19 -38 47 -71 60 -67 28 -69 39 -31 168 54 177 212 233 212 75z m3697 -21 c55 -35 -16 -132 -97 -132 -84 0 -102 48 -41 109 43 43 93 52 138 23z m-637 -117 c-1 -46 -18 -68 -87 -112 -31 -20 -65 -61 -75 -92 -16 -44 -29 -53 -68 -46 -59 11 -30 76 44 94 28 7 50 32 58 66 20 86 128 162 128 90z m-138 -337 c14 -18 48 -40 75 -51 72 -27 42 -39 -64 -24 -81 11 -93 19 -93 60 0 54 42 62 82 15z m174 -210 c4 -38 -8 -61 -45 -85 -67 -45 -65 -105 6 -148 102 -62 12 -187 -122 -170 -95 12 -107 84 -20 121 l55 23 -55 -7 c-64 -8 -75 37 -20 82 32 26 31 27 -10 16 -43 -12 -45 -7 -45 102 0 109 2 113 37 81 44 -40 71 -43 57 -5 -16 42 6 55 85 48 60 -5 72 -14 77 -58z m-3484 -213 c143 -157 157 -176 151 -219 -14 -109 138 -197 213 -122 19 19 24 -16 24 -158 l0 -182 -67 -12 c-112 -21 -146 -76 -72 -119 59 -35 73 -62 43 -81 -56 -34 -194 109 -215 223 -22 123 -67 157 -89 65 -28 -117 -79 140 -93 465 -11 244 -1 257 105 140z m388 -99 c0 -67 -2 -70 -27 -36 -15 20 -23 53 -18 73 17 64 45 40 45 -37z m1470 10 c32 -24 93 -122 141 -225 47 -99 108 -212 137 -250 91 -121 82 -127 -183 -116 -129 5 -250 16 -267 23 -39 17 -56 218 -39 442 l11 140 78 -140 c112 -202 170 -293 228 -355 71 -76 97 -69 37 10 -28 36 -75 124 -105 195 -30 72 -85 173 -121 225 -78 110 -29 140 83 51z m219 -135 c14 -28 31 -87 38 -131 14 -89 16 -93 -80 127 -49 111 -14 115 42 4z m-1781 47 c42 -16 41 -106 -1 -122 -47 -18 -92 48 -66 97 23 41 23 42 67 25z m3035 -138 c-8 -71 -13 -78 -42 -61 -38 24 -26 135 14 127 26 -5 33 -22 28 -66z m115 -182 c120 -100 82 -247 -63 -248 -58 0 -40 36 25 50 96 21 100 58 5 43 l-80 -13 -23 89 c-12 49 -22 93 -22 98 0 9 40 23 83 31 8 1 42 -21 75 -50z m-3929 -128 c70 -26 64 -71 -12 -98 -91 -32 -97 -29 -97 48 0 76 19 85 109 50z m431 -110 c22 -27 28 -27 48 -1 18 24 28 17 54 -40 l33 -69 -108 0 c-111 0 -118 7 -94 95 14 53 32 57 67 15z m3555 -54 c-12 -36 -115 -59 -115 -26 0 25 34 42 97 48 14 1 23 -9 18 -22z m-23 -145 c-15 -61 -43 -66 -58 -11 -6 25 2 47 23 59 43 24 51 14 35 -48z" fill="#cecece"/>
<path d="M2656 10766 c172 -84 227 -239 239 -666 12 -419 -2 -475 -145 -610 l-106 -100 99 -68 c149 -103 157 -129 157 -500 0 -478 -61 -659 -267 -797 l-98 -65 838 0 c826 1 836 1 757 37 -221 101 -273 249 -285 815 l-9 422 119 12 c319 34 589 -103 643 -325 10 -39 45 -189 79 -333 255 -1075 1234 -2036 2122 -2082 699 -37 1352 511 1241 1042 -111 539 -949 528 -1051 -14 l-13 -74 97 0 c286 0 395 -350 164 -526 -234 -178 -637 -85 -944 219 -571 562 -869 1318 -872 2210 l-1 153 -97 -37 c-128 -48 -310 -67 -477 -49 l-136 15 170 54 c247 78 396 158 499 268 50 53 127 135 171 182 44 46 98 94 120 106 38 21 35 26 -42 93 -48 41 -110 125 -148 201 -118 239 -283 357 -584 419 -238 49 -2339 48 -2240 -2z m1713 -414 c179 -75 258 -402 137 -569 -84 -117 -349 -188 -573 -154 l-93 13 0 368 0 368 105 8 c152 13 350 -4 424 -34z" fill="#cecece"/>
<path d="M3929 10274 c-6 -14 -8 -143 -5 -285 l6 -259 110 -7 c300 -18 429 75 416 301 -12 212 -100 274 -392 276 -85 0 -128 -8 -135 -26z m335 -55 c95 -26 137 -86 133 -188 l-4 -81 -8 75 c-9 92 -61 101 -137 25 -60 -60 -62 -175 -3 -186 21 -4 35 5 35 24 0 31 91 67 114 45 57 -58 -128 -153 -299 -153 l-95 0 0 71 0 70 59 -30 c93 -48 102 4 14 77 -67 57 -73 71 -73 167 l0 105 95 0 c52 0 128 -10 169 -21z" fill="#cecece"/>
<path d="M918 9602 c167 -156 193 -587 44 -730 l-58 -55 69 -64 c141 -130 112 -542 -50 -713 l-77 -80 479 0 478 0 -62 52 c-114 96 -129 149 -130 448 l-1 270 110 -6 c194 -11 260 -48 354 -196 19 -30 24 32 25 307 1 362 -4 382 -69 281 -69 -109 -137 -144 -291 -153 l-139 -8 0 235 0 235 305 -9 c340 -10 442 -38 573 -162 l67 -64 -13 160 c-8 88 -19 194 -25 235 l-12 75 -820 0 -819 0 62 -58z" fill="#cecece"/>
<path d="M5908 9580 c39 -44 73 -87 73 -95 1 -8 9 -91 18 -185 23 -224 -1 -335 -89 -420 l-67 -65 61 -52 c162 -136 149 -602 -20 -744 l-74 -61 660 7 c805 9 919 38 1030 254 21 43 67 97 100 121 l61 43 -52 41 c-28 23 -72 87 -98 144 -65 146 -136 201 -361 281 -36 12 -33 17 25 42 109 46 200 127 241 215 22 46 58 101 81 122 l42 37 -51 63 c-28 34 -70 93 -94 131 -109 172 -249 200 -981 201 l-578 0 73 -80z m903 -189 c237 -99 111 -431 -164 -431 l-87 0 0 230 0 230 91 0 c49 0 122 -13 160 -29z m29 -686 c89 -45 119 -107 120 -250 0 -176 -66 -241 -258 -251 l-142 -9 0 273 0 272 105 0 c60 0 135 -15 175 -35z" fill="#cecece"/>
<path d="M6660 9190 c0 -124 2 -130 49 -130 105 0 163 191 72 239 -97 52 -121 31 -121 -109z m100 11 c0 -32 -9 -64 -20 -71 -12 -7 -20 16 -20 59 0 39 9 71 20 71 11 0 20 -26 20 -59z" fill="#cecece"/>
<path d="M6660 8470 l0 -170 65 0 c86 1 112 20 134 98 39 136 -24 242 -143 242 l-56 0 0 -170z m160 1 c0 -39 -45 -111 -70 -111 -37 0 -41 92 -5 107 32 13 75 15 75 4z" fill="#cecece"/>
<path d="M1700 9190 l0 -130 68 0 c84 0 165 64 226 178 l44 82 -169 0 -169 0 0 -130z m228 45 c-72 -127 -168 -153 -168 -45 0 70 0 70 91 70 67 0 88 -7 77 -25z" fill="#cecece"/>
<path d="M6445 7865 c-311 -3 -565 -10 -565 -16 0 -67 433 -607 568 -709 368 -278 812 -256 812 40 0 125 -65 184 -200 183 -111 -1 -180 34 -180 89 0 86 53 243 110 329 37 54 57 97 44 94 -13 -2 -278 -7 -589 -10z m436 -150 c-116 -267 -53 -419 171 -409 196 8 208 -223 15 -287 -290 -96 -716 197 -1056 726 l-36 55 472 0 471 0 -37 -85z" fill="#cecece"/>
<path d="M2567 8530 c-18 -48 25 -85 69 -57 48 30 42 76 -11 83 -28 4 -50 -6 -58 -26z" fill="#cecece"/>
<path d="M5223 11962 c-19 -12 -12 -25 27 -50 72 -47 103 -31 46 22 -29 28 -56 38 -73 28z" fill="#cecece"/>
<path d="M4413 11927 c-23 -23 -16 -36 95 -185 139 -185 161 -154 31 45 -104 160 -104 161 -126 140z" fill="#cecece"/>
<path d="M5093 11907 c-47 -48 66 -132 264 -197 120 -39 122 -41 301 -267 70 -90 137 -163 148 -163 52 0 -116 410 -179 434 -52 20 -48 -6 14 -92 33 -46 55 -93 48 -104 -7 -11 -41 18 -74 66 -104 145 -159 196 -214 196 -64 1 -202 63 -238 107 -30 35 -49 41 -70 20z" fill="#cecece"/>
<path d="M830 11800 c9 -49 22 -171 30 -270 l14 -180 3 174 c5 301 83 201 83 -108 0 -84 9 -159 20 -166 58 -36 22 400 -41 495 -98 149 -129 164 -109 55z" fill="#cecece"/>
<path d="M4268 11751 c-6 -15 24 -76 68 -135 150 -201 193 -319 128 -354 -53 -28 -90 2 -226 189 -107 147 -178 208 -178 152 0 -34 197 -295 277 -368 188 -170 300 -9 157 226 -209 342 -207 340 -226 290z" fill="#cecece"/>
<path d="M4180 11669 c0 -32 218 -329 229 -311 14 24 -179 322 -210 322 -10 0 -19 -5 -19 -11z" fill="#cecece"/>
<path d="M4880 11652 c0 -15 30 -94 67 -175 125 -273 115 -257 104 -169 -15 122 -171 436 -171 344z" fill="#cecece"/>
<path d="M3960 11553 c0 -15 17 -42 37 -60 74 -67 228 -311 216 -342 -26 -69 -92 -28 -255 160 -156 180 -263 242 -168 97 250 -383 611 -476 419 -108 -74 139 -249 318 -249 253z" fill="#cecece"/>
<path d="M3520 11360 c179 -198 246 -256 357 -305 138 -61 145 -19 20 118 -59 65 -135 153 -170 197 -35 44 -70 74 -78 66 -8 -8 39 -76 105 -150 226 -257 132 -207 -153 83 -209 211 -273 204 -81 -9z" fill="#cecece"/>
<path d="M3884 11484 c167 -229 236 -301 236 -248 0 25 -221 284 -243 284 -10 0 -8 -16 7 -36z" fill="#cecece"/>
<path d="M7614 11385 c-50 -184 -59 -325 -34 -527 20 -158 19 -207 -6 -303 -34 -129 -14 -159 24 -35 13 44 50 123 83 175 81 131 124 348 115 580 -16 379 -76 184 -76 -248 0 -150 -40 -231 -81 -166 -28 44 -21 254 11 389 56 231 23 352 -36 135z" fill="#cecece"/>
<path d="M3411 11340 c17 -95 64 -164 105 -156 50 10 41 65 -11 72 -27 4 -45 21 -45 42 0 19 -14 52 -31 73 -29 37 -30 35 -18 -31z" fill="#cecece"/>
<path d="M7340 11211 c0 -214 21 -282 119 -391 l64 -70 -15 90 c-8 50 -20 171 -28 270 l-14 180 -3 -174 c-5 -300 -83 -210 -83 96 0 91 -9 171 -20 178 -13 8 -20 -57 -20 -179z" fill="#cecece"/>
<path d="M4670 11320 c-7 -11 10 -49 38 -85 27 -36 72 -115 100 -175 29 -61 52 -95 52 -76 0 94 -162 382 -190 336z" fill="#cecece"/>
<path d="M7871 11322 c-6 -10 -21 -116 -34 -235 -17 -172 -34 -240 -79 -327 -73 -139 -73 -160 0 -82 32 34 71 62 87 62 87 0 155 174 153 390 -2 160 -33 263 -36 119 -2 -113 -37 -324 -61 -367 -9 -15 -11 82 -6 215 10 226 5 271 -24 225z" fill="#cecece"/>
<path d="M5220 11274 c0 -15 265 -188 590 -383 661 -400 658 -397 568 -429 -130 -45 -173 -24 -828 409 -343 228 -336 224 -327 183 20 -88 974 -703 1064 -685 218 42 283 128 158 210 -269 175 -965 589 -1160 689 -52 26 -65 28 -65 6z" fill="#cecece"/>
<path d="M1333 11187 c-27 -27 -12 -76 41 -131 91 -95 135 -64 81 58 -34 78 -86 109 -122 73z" fill="#cecece"/>
<path d="M5200 11185 c0 -50 987 -694 1034 -676 40 15 91 -22 -473 340 -543 348 -561 359 -561 336z" fill="#cecece"/>
<path d="M774 10985 c-55 -55 -55 -55 -67 -11 -25 96 -107 -1 -107 -126 0 -120 -18 -133 -75 -55 l-39 53 -22 -65 c-20 -56 -16 -77 31 -168 30 -56 58 -111 62 -120 4 -10 -14 -11 -40 -4 -127 37 -120 39 -113 -31 5 -53 17 -68 63 -81 71 -18 133 -73 133 -116 0 -32 116 -135 143 -126 7 2 33 -50 57 -116 25 -66 57 -119 72 -119 37 0 35 20 -11 127 -58 137 -45 326 26 378 65 47 81 190 18 166 -163 -63 -174 -31 -34 94 46 41 89 97 94 125 11 59 15 59 -74 16 -90 -43 -110 -22 -53 55 85 115 31 219 -64 124z m-24 -164 c-72 -142 -68 -171 15 -128 l65 33 -76 -92 c-92 -112 -79 -188 28 -167 74 15 73 -1 -5 -66 -67 -56 -68 -132 -3 -145 27 -5 28 -9 4 -29 -40 -32 -118 2 -118 52 0 23 -31 61 -75 92 l-75 52 65 -13 c85 -17 87 25 5 180 -75 142 -75 152 -1 81 l59 -57 6 138 c5 119 11 137 41 132 19 -3 51 3 70 14 19 12 37 21 40 21 3 1 -17 -44 -45 -98z" fill="#cecece"/>
<path d="M1620 10994 c0 -15 12 -42 26 -62 32 -43 87 5 67 58 -14 37 -93 40 -93 4z" fill="#cecece"/>
<path d="M1487 10928 c-17 -43 45 -104 75 -74 29 29 4 106 -34 106 -16 0 -35 -14 -41 -32z" fill="#cecece"/>
<path d="M5221 10929 c39 -47 692 -509 719 -509 13 0 -143 122 -348 270 -363 263 -424 302 -371 239z" fill="#cecece"/>
<path d="M1368 10852 c-17 -45 16 -77 72 -69 44 7 44 7 -8 55 -46 43 -52 44 -64 14z" fill="#cecece"/>
<path d="M1575 10785 c-76 -79 -71 -146 16 -223 162 -143 326 18 203 200 -62 93 -144 101 -219 23z m164 -49 c77 -82 34 -166 -59 -116 -46 25 -80 95 -65 135 15 39 79 29 124 -19z" fill="#cecece"/>
<path d="M7310 10652 c-44 -32 -18 -80 59 -114 23 -10 61 -32 86 -50 65 -47 61 4 -9 110 -58 89 -78 97 -136 54z" fill="#cecece"/>
<path d="M7765 10523 c-95 -81 -86 -108 30 -92 116 17 125 22 125 66 0 91 -66 102 -155 26z" fill="#cecece"/>
<path d="M6713 10309 c-49 -62 -62 -148 -18 -124 8 4 44 19 79 33 72 28 102 89 65 133 -37 44 -64 35 -126 -42z" fill="#cecece"/>
<path d="M1980 10332 c0 -51 24 -92 52 -92 34 0 37 63 4 96 -32 32 -56 30 -56 -4z" fill="#cecece"/>
<path d="M1013 10292 c-18 -47 55 -100 86 -63 14 17 20 44 14 61 -15 38 -85 39 -100 2z" fill="#cecece"/>
<path d="M2160 10249 c0 -48 48 -88 74 -61 16 15 -34 112 -57 112 -10 0 -17 -23 -17 -51z" fill="#cecece"/>
<path d="M6460 10200 c0 -47 50 -54 68 -8 17 46 16 48 -28 48 -27 0 -40 -13 -40 -40z" fill="#cecece"/>
<path d="M931 10202 c-6 -10 -1 -63 12 -118 l23 -100 69 72 68 73 -56 45 c-61 49 -98 57 -116 28z" fill="#cecece"/>
<path d="M1968 10148 c7 -17 12 -35 12 -40 0 -4 18 -8 40 -8 51 0 52 32 1 59 -53 29 -67 26 -53 -11z" fill="#cecece"/>
<path d="M6573 10167 c-16 -17 -18 -87 -2 -87 38 0 86 45 76 70 -12 31 -51 40 -74 17z" fill="#cecece"/>
<path d="M471 10122 c-19 -31 11 -82 49 -82 38 0 68 51 49 82 -6 10 -28 18 -49 18 -21 0 -43 -8 -49 -18z" fill="#cecece"/>
<path d="M614 10084 c-67 -74 -53 -135 29 -128 40 4 79 -3 86 -15 43 -68 43 -4 1 79 -56 110 -68 117 -116 64z" fill="#cecece"/>
<path d="M2218 10019 c35 -29 55 -34 70 -19 26 26 -18 60 -78 59 -37 0 -37 -3 8 -40z" fill="#cecece"/>
<path d="M6629 10031 c-36 -26 -37 -29 -4 -42 47 -18 95 3 95 40 0 39 -41 40 -91 2z" fill="#cecece"/>
<path d="M4512 8176 c-34 -108 -29 -296 8 -296 67 0 101 303 35 316 -19 4 -39 -5 -43 -20z" fill="#cecece"/>
<path d="M2259 8109 c-32 -39 -9 -89 40 -89 30 0 41 13 41 48 0 57 -47 81 -81 41z" fill="#cecece"/>
<path d="M4371 7739 c-141 -117 -191 -212 -139 -264 11 -12 203 183 291 294 l40 51 -47 0 c-26 0 -91 -37 -145 -81z" fill="#cecece"/>
<path d="M4505 7627 c-33 -14 -32 -47 0 -47 14 0 66 -21 115 -48 68 -36 96 -42 123 -26 66 41 -159 156 -238 121z" fill="#cecece"/>
</g>
</svg>